<svg width="48" height="48" viewBox="0 0 48 48" fill="none" xmlns="http://www.w3.org/2000/svg">
    <g clip-path="url(#clip0_1633_37040)">
        <path d="M23.87 47.9999H8.105C3.605 47.9999 0.045 44.3447 0.045 39.68L0 24.0049C0.00661563 17.6413 2.55084 11.5401 7.07452 7.03986C11.5982 2.53962 17.7319 0.00783743 24.13 -6.10352e-05L39.63 -6.10352e-05C41.8486 0.00125479 43.976 0.878081 45.5453 2.43794C47.1145 3.99781 47.9974 6.11324 48 8.31987V23.9999C47.9921 30.3627 45.4473 36.4626 40.9237 40.9618C36.4002 45.4609 30.2672 47.992 23.87 47.9999Z" fill="#FFED00"/>
        <g style="mix-blend-mode:multiply">
            <path d="M23.87 47.9999H8.105C3.605 47.9999 0.045 44.3447 0.045 39.68L0 24.0049C0.00661563 17.6413 2.55084 11.5401 7.07452 7.03986C11.5982 2.53962 17.7319 0.00783743 24.13 -6.10352e-05L39.63 -6.10352e-05C41.8486 0.00125479 43.976 0.878081 45.5453 2.43794C47.1145 3.99781 47.9974 6.11324 48 8.31987V23.9999C47.9921 30.3627 45.4473 36.4626 40.9237 40.9618C36.4002 45.4609 30.2672 47.992 23.87 47.9999ZM24.13 3.66011C18.7104 3.67324 13.5165 5.8204 9.68425 9.63202C5.85199 13.4436 3.6932 18.6095 3.68 23.9999L3.725 39.675C3.725 42.3356 5.605 44.3398 8.105 44.3398H24.165C29.5333 44.2499 34.6519 42.0689 38.4207 38.2656C42.1895 34.4622 44.3077 29.34 44.32 23.9999V8.31987C44.3187 7.08443 43.8247 5.89997 42.9463 5.02638C42.068 4.15279 40.8771 3.66143 39.635 3.66011H24.13Z" fill="black"/>
        </g>
        <path d="M8.02537 31.4055H10.6004C10.7701 31.4055 10.9329 31.3385 11.0529 31.2191C11.1729 31.0997 11.2404 30.9378 11.2404 30.769C11.2404 30.6001 11.1729 30.4382 11.0529 30.3189C10.9329 30.1995 10.7701 30.1324 10.6004 30.1324H8.66037V25.0599C8.66037 24.8911 8.59294 24.7292 8.47292 24.6098C8.3529 24.4904 8.19011 24.4233 8.02037 24.4233C7.85063 24.4233 7.68785 24.4904 7.56782 24.6098C7.4478 24.7292 7.38037 24.8911 7.38037 25.0599V30.7739C7.38103 30.8575 7.39823 30.9402 7.431 31.0172C7.46377 31.0941 7.51146 31.164 7.57135 31.2226C7.63125 31.2813 7.70217 31.3276 7.78007 31.359C7.85797 31.3904 7.94132 31.4062 8.02537 31.4055Z" fill="black"/>
        <path d="M13.1904 31.4057H16.3354C16.5051 31.4057 16.6679 31.3386 16.788 31.2192C16.908 31.0998 16.9754 30.9379 16.9754 30.7691C16.9754 30.6003 16.908 30.4384 16.788 30.319C16.6679 30.1996 16.5051 30.1326 16.3354 30.1326H13.8354V28.5462H15.7754C15.8632 28.5539 15.9517 28.5434 16.0351 28.5153C16.1186 28.4873 16.1953 28.4422 16.2604 28.383C16.3254 28.3239 16.3773 28.2519 16.4128 28.1716C16.4484 28.0914 16.4667 28.0047 16.4667 27.9171C16.4667 27.8294 16.4484 27.7427 16.4128 27.6625C16.3773 27.5823 16.3254 27.5103 16.2604 27.4511C16.1953 27.3919 16.1186 27.3469 16.0351 27.3188C15.9517 27.2907 15.8632 27.2802 15.7754 27.288H13.8254V25.7016H16.3254C16.4951 25.7016 16.6579 25.6345 16.778 25.5151C16.898 25.3957 16.9654 25.2338 16.9654 25.065C16.9654 24.8962 16.898 24.7343 16.778 24.6149C16.6579 24.4955 16.4951 24.4285 16.3254 24.4285H13.1904C13.1064 24.4278 13.023 24.4436 12.9451 24.475C12.8672 24.5064 12.7963 24.5527 12.7364 24.6114C12.6765 24.67 12.6288 24.7398 12.596 24.8168C12.5633 24.8938 12.5461 24.9764 12.5454 25.06V30.7741C12.5461 30.8577 12.5633 30.9403 12.596 31.0173C12.6288 31.0943 12.6765 31.1641 12.7364 31.2227C12.7963 31.2814 12.8672 31.3277 12.9451 31.3591C13.023 31.3905 13.1064 31.4063 13.1904 31.4057Z" fill="black"/>
        <path d="M22 28.844L23.43 26.9394V30.7537C23.43 30.9225 23.4975 31.0844 23.6175 31.2038C23.7375 31.3232 23.9003 31.3902 24.07 31.3902C24.2398 31.3902 24.4026 31.3232 24.5226 31.2038C24.6426 31.0844 24.71 30.9225 24.71 30.7537V25.0595C24.7094 24.9759 24.6922 24.8933 24.6594 24.8163C24.6266 24.7393 24.5789 24.6695 24.519 24.6109C24.4592 24.5522 24.3882 24.5059 24.3103 24.4745C24.2324 24.4431 24.1491 24.4273 24.065 24.428C23.9681 24.4283 23.8725 24.451 23.7858 24.4941C23.6991 24.5372 23.6235 24.5997 23.565 24.6766L21.5 27.4317L19.43 24.6766C19.3491 24.5705 19.2368 24.4923 19.1089 24.453C18.9809 24.4137 18.8438 24.4153 18.7168 24.4576C18.5899 24.4998 18.4794 24.5807 18.4011 24.6886C18.3227 24.7966 18.2804 24.9264 18.28 25.0595V30.7736C18.28 30.9424 18.3475 31.1043 18.4675 31.2237C18.5875 31.3431 18.7503 31.4101 18.92 31.4101C19.0898 31.4101 19.2526 31.3431 19.3726 31.2237C19.4926 31.1043 19.56 30.9424 19.56 30.7736V26.9592L21 28.844C21.0583 28.922 21.1335 28.9857 21.2201 29.0305C21.3067 29.0753 21.4024 29.1 21.5 29.1026C21.5975 29.0993 21.6929 29.0743 21.7794 29.0296C21.8659 28.9848 21.9413 28.9214 22 28.844Z" fill="black"/>
        <path d="M29.3857 24.4272C28.6884 24.4004 27.9989 24.5816 27.4058 24.9475C26.8128 25.3134 26.3433 25.8472 26.0575 26.4805C25.7718 27.1138 25.6829 27.8176 25.8024 28.5014C25.9218 29.1853 26.244 29.8181 26.7277 30.3184C27.2114 30.8188 27.8344 31.1639 28.5167 31.3095C29.1991 31.4551 29.9096 31.3944 30.5571 31.1353C31.2045 30.8763 31.7593 30.4306 32.1502 29.8556C32.5411 29.2806 32.7502 28.6025 32.7507 27.9084C32.7668 27.0034 32.4217 26.129 31.7911 25.4766C31.1604 24.8241 30.2955 24.4468 29.3857 24.4272ZM31.4757 27.9084C31.4494 28.3127 31.3048 28.7007 31.0598 29.0244C30.8147 29.3481 30.4799 29.5936 30.0964 29.7305C29.713 29.8675 29.2976 29.89 28.9015 29.7952C28.5054 29.7005 28.1457 29.4926 27.8668 29.1973C27.5878 28.9019 27.4017 28.5319 27.3314 28.1328C27.2611 27.7336 27.3097 27.3227 27.4711 26.9506C27.6325 26.5786 27.8997 26.2615 28.2398 26.0385C28.58 25.8155 28.9783 25.6962 29.3857 25.6953C29.6714 25.7018 29.9529 25.7644 30.2141 25.8795C30.4753 25.9947 30.711 26.1601 30.9076 26.3663C31.1042 26.5725 31.2578 26.8153 31.3596 27.0809C31.4614 27.3464 31.5094 27.6293 31.5007 27.9133L31.4757 27.9084Z" fill="black"/>
        <path d="M38.7097 24.4285C38.6257 24.4278 38.5423 24.4436 38.4644 24.475C38.3865 24.5064 38.3156 24.5527 38.2557 24.6114C38.1958 24.67 38.1481 24.7398 38.1153 24.8168C38.0826 24.8938 38.0654 24.9764 38.0647 25.06V28.765L35.2097 24.702C35.1545 24.6199 35.0802 24.5522 34.9932 24.5046C34.9062 24.457 34.809 24.4309 34.7097 24.4285C34.6257 24.4278 34.5423 24.4436 34.4644 24.475C34.3865 24.5064 34.3156 24.5527 34.2557 24.6114C34.1958 24.67 34.1481 24.7398 34.1153 24.8168C34.0826 24.8938 34.0654 24.9764 34.0647 25.06V30.7741C34.0647 30.9429 34.1321 31.1048 34.2522 31.2242C34.3722 31.3436 34.535 31.4106 34.7047 31.4106C34.8744 31.4106 35.0372 31.3436 35.1572 31.2242C35.2773 31.1048 35.3447 30.9429 35.3447 30.7741V27.0692L38.1997 31.1321C38.2561 31.2131 38.3306 31.2799 38.4174 31.3274C38.5041 31.3749 38.6008 31.4016 38.6997 31.4057C38.8673 31.4031 39.0273 31.3357 39.1459 31.2178C39.2644 31.0999 39.3321 30.9408 39.3347 30.7741V25.06C39.3347 24.8942 39.2692 24.7351 39.1523 24.6169C39.0353 24.4988 38.8764 24.4311 38.7097 24.4285Z" fill="black"/>
        <path d="M10.8855 34.8121C11.4768 34.8091 12.0452 35.0399 12.4655 35.4536C12.5224 35.5155 12.592 35.5644 12.6697 35.5971C12.7474 35.6297 12.8312 35.6452 12.9155 35.6426C12.9983 35.6436 13.0805 35.6278 13.157 35.5962C13.2335 35.5645 13.3028 35.5177 13.3605 35.4586C13.4222 35.3995 13.471 35.3284 13.5037 35.2496C13.5364 35.1709 13.5523 35.0863 13.5505 35.0011C13.5511 34.9207 13.5354 34.8409 13.5045 34.7666C13.4736 34.6923 13.428 34.6249 13.3705 34.5684C12.8809 34.0713 12.2528 33.7315 11.5671 33.5929C10.8815 33.4543 10.1698 33.5233 9.52396 33.791C8.87813 34.0586 8.32776 34.5126 7.9439 35.0945C7.56005 35.6763 7.36031 36.3591 7.37049 37.055C7.36031 37.7508 7.56005 38.4336 7.9439 39.0154C8.32776 39.5973 8.87813 40.0513 9.52396 40.3189C10.1698 40.5866 10.8815 40.6556 11.5671 40.517C12.2528 40.3784 12.8809 40.0386 13.3705 39.5415C13.4308 39.4814 13.4787 39.41 13.5113 39.3315C13.5439 39.253 13.5606 39.1689 13.5605 39.084V37.0947C13.5605 36.9272 13.4936 36.7666 13.3745 36.6481C13.2554 36.5297 13.0939 36.4632 12.9255 36.4632H10.9255C10.8377 36.4554 10.7492 36.4659 10.6658 36.494C10.5823 36.522 10.5056 36.5671 10.4405 36.6263C10.3755 36.6855 10.3236 36.7574 10.2881 36.8377C10.2525 36.9179 10.2342 37.0046 10.2342 37.0922C10.2342 37.1799 10.2525 37.2666 10.2881 37.3468C10.3236 37.4271 10.3755 37.499 10.4405 37.5582C10.5056 37.6174 10.5823 37.6625 10.6658 37.6905C10.7492 37.7186 10.8377 37.7291 10.9255 37.7213H12.3005V38.7906C11.9065 39.1103 11.414 39.2859 10.9055 39.2879C10.6121 39.2892 10.3214 39.2318 10.0508 39.119C9.78024 39.0062 9.53526 38.8404 9.33049 38.6314C9.00839 38.3244 8.78629 37.9284 8.69287 37.4945C8.59946 37.0606 8.63903 36.6088 8.80648 36.1976C8.97393 35.7863 9.26155 35.4344 9.63217 35.1874C10.0028 34.9404 10.4394 34.8097 10.8855 34.8121Z" fill="black"/>
        <path d="M19.8652 33.6629C19.7296 33.5702 19.5628 33.5344 19.4008 33.5633C19.2389 33.5921 19.0949 33.6833 19.0002 33.8171L17.5002 35.9257L16.0002 33.8171C15.9438 33.7361 15.8693 33.6693 15.7825 33.6218C15.6958 33.5744 15.5991 33.5476 15.5002 33.5436C15.4148 33.5455 15.3307 33.5642 15.2525 33.5985C15.1744 33.6327 15.1039 33.682 15.0449 33.7434C14.9859 33.8049 14.9397 33.8772 14.9089 33.9564C14.878 34.0356 14.8632 34.1201 14.8652 34.205C14.8646 34.3281 14.907 34.4476 14.9852 34.5432L16.8752 37.2286V39.8892C16.8893 40.0477 16.9626 40.1951 17.0806 40.3026C17.1986 40.41 17.3527 40.4696 17.5127 40.4696C17.6726 40.4696 17.8268 40.41 17.9448 40.3026C18.0628 40.1951 18.136 40.0477 18.1502 39.8892V37.2286L20.0002 34.5432C20.0761 34.4351 20.1179 34.307 20.1202 34.1752C20.1211 34.0759 20.0986 33.9777 20.0543 33.8887C20.01 33.7997 19.9452 33.7224 19.8652 33.6629Z" fill="black"/>
        <path d="M27.2403 33.5437C27.1433 33.5437 27.0476 33.5661 26.9608 33.6093C26.874 33.6524 26.7985 33.7151 26.7403 33.7923L24.6653 36.5474L22.5853 33.8172C22.5282 33.7385 22.453 33.6744 22.3661 33.6303C22.2792 33.5862 22.1829 33.5633 22.0853 33.5636C22.0015 33.5629 21.9184 33.5787 21.8408 33.6102C21.7632 33.6416 21.6926 33.6881 21.6331 33.7468C21.5736 33.8055 21.5263 33.8753 21.4941 33.9523C21.4619 34.0292 21.4453 34.1118 21.4453 34.1951V39.8893C21.4453 40.0559 21.5115 40.2158 21.6295 40.3341C21.7475 40.4524 21.9078 40.5196 22.0753 40.5209C22.1594 40.5215 22.2427 40.5057 22.3206 40.4743C22.3985 40.4429 22.4694 40.3966 22.5293 40.3379C22.5892 40.2793 22.6369 40.2095 22.6697 40.1325C22.7025 40.0555 22.7197 39.9729 22.7203 39.8893V36.0749L24.1503 37.9796C24.2098 38.0598 24.2874 38.125 24.3769 38.1699C24.4663 38.2149 24.5651 38.2383 24.6653 38.2383C24.7655 38.2383 24.8643 38.2149 24.9538 38.1699C25.0432 38.125 25.1208 38.0598 25.1803 37.9796L26.6103 36.0749V39.8893C26.6244 40.0478 26.6977 40.1952 26.8157 40.3026C26.9337 40.4101 27.0879 40.4696 27.2478 40.4696C27.4078 40.4696 27.5619 40.4101 27.6799 40.3026C27.7979 40.1952 27.8712 40.0478 27.8853 39.8893V34.1752C27.8853 34.0915 27.8686 34.0085 27.836 33.9312C27.8035 33.8539 27.7558 33.7839 27.6958 33.7251C27.6358 33.6663 27.5646 33.62 27.4864 33.5888C27.4082 33.5577 27.3245 33.5423 27.2403 33.5437Z" fill="black"/>
    </g>
    <defs>
        <clipPath id="clip0_1633_37040">
            <rect width="48" height="48" fill="white"/>
        </clipPath>
    </defs>
</svg>
