<svg xmlns="http://www.w3.org/2000/svg" width="138" height="69.203" viewBox="0 0 138 69.203">
  <g id="logo" transform="translate(-1046.885 -675.024)">
    <path id="Path_34" data-name="Path 34" d="M1128.694,771.436l-5.587-5.587a1.525,1.525,0,0,0-1.158-.478h-9.176a1.565,1.565,0,0,0-1.209.478l-5.588,5.587a1.591,1.591,0,0,0-.529,1.21v1.743a.938.938,0,0,0,.97.969h2.871a.938.938,0,0,0,.969-.969v-2.666a1.4,1.4,0,0,1,1.543-1.542h11.124a1.394,1.394,0,0,1,1.491,1.542v3.952h-12.051a1.452,1.452,0,0,0-1.158.478l-5.587,5.587a1.558,1.558,0,0,0-.529,1.159v1.538a1.525,1.525,0,0,0,.477,1.158l5.588,5.588a1.567,1.567,0,0,0,1.209.477h15.891a.918.918,0,0,0,.969-.969V772.646a1.59,1.59,0,0,0-.529-1.21m-4.28,13.974c0,1.036-.418,1.44-1.491,1.44h-11.534a1.345,1.345,0,0,1-1.491-1.491v-3.332a1.4,1.4,0,0,1,1.491-1.543h11.534c1.073,0,1.491.4,1.491,1.44Z" transform="translate(-30.557 -47.433)" fill="#fff"/>
    <path id="Path_35" data-name="Path 35" d="M1242.546,712.815a1.545,1.545,0,0,0,1.26-.528l6.122-6.073a1.755,1.755,0,0,0,.508-1.238v-.82a1.526,1.526,0,0,0-.477-1.158l-5.588-5.588a1.648,1.648,0,0,0-1.209-.477h-9.484a1.566,1.566,0,0,0-1.209.477L1226.881,703a1.59,1.59,0,0,0-.529,1.209V716a1.526,1.526,0,0,0,.477,1.158l5.588,5.587a1.647,1.647,0,0,0,1.209.477h9.381a1.565,1.565,0,0,0,1.21-.477l5.587-5.587a1.591,1.591,0,0,0,.529-1.21V714.2a.97.97,0,0,0-.969-.969h-2.871a.938.938,0,0,0-.97.969v2.717a1.394,1.394,0,0,1-1.542,1.491h-11.328a1.345,1.345,0,0,1-1.491-1.491v-4.105Zm-11.385-9.531a1.394,1.394,0,0,1,1.491-1.542h11.482a1.394,1.394,0,0,1,1.491,1.542v.96l-3.761,3.761h-9.213c-1.128,0-1.394-.472-1.491-.946Z" transform="translate(-94.222 -11.502)" fill="#fff"/>
    <path id="Path_36" data-name="Path 36" d="M1128.305,696.932h-2.87a.938.938,0,0,0-.969.969v8.82c0,1.021-.448,1.437-1.543,1.437h-11.534a1.394,1.394,0,0,1-1.542-1.491V697.9a.935.935,0,0,0-.918-.969h-2.871a.938.938,0,0,0-.969.969v7.792a1.647,1.647,0,0,0,.477,1.209l5.588,5.588a1.567,1.567,0,0,0,1.21.477h12.1v3.952a1.394,1.394,0,0,1-1.543,1.491h-11.534a1.345,1.345,0,0,1-1.491-1.491V714.2a.971.971,0,0,0-.969-.969h-2.871a.938.938,0,0,0-.969.969v1.743a1.587,1.587,0,0,0,.529,1.209l5.587,5.588a1.565,1.565,0,0,0,1.209.478h9.535a1.565,1.565,0,0,0,1.209-.478l5.612-5.615a1.723,1.723,0,0,0,.453-1.182V697.9a.935.935,0,0,0-.918-.969" transform="translate(-30.557 -11.502)" fill="#fff"/>
    <path id="Path_37" data-name="Path 37" d="M1242.546,781.254a1.544,1.544,0,0,0,1.26-.528l6.123-6.073a1.753,1.753,0,0,0,.507-1.237V772.6a1.525,1.525,0,0,0-.478-1.158l-5.587-5.587a1.647,1.647,0,0,0-1.21-.478h-9.483a1.565,1.565,0,0,0-1.209.478l-5.588,5.587a1.591,1.591,0,0,0-.529,1.21v11.79a1.526,1.526,0,0,0,.477,1.158l5.588,5.588a1.647,1.647,0,0,0,1.209.477h9.381a1.566,1.566,0,0,0,1.209-.477l5.588-5.588a1.592,1.592,0,0,0,.529-1.209v-1.743a.97.97,0,0,0-.969-.969h-2.871a.937.937,0,0,0-.969.969v2.717a1.4,1.4,0,0,1-1.542,1.491h-11.329a1.345,1.345,0,0,1-1.491-1.491v-4.105Zm-11.385-9.53a1.394,1.394,0,0,1,1.491-1.542h11.483a1.394,1.394,0,0,1,1.491,1.542v.96l-3.761,3.761h-9.214c-1.127,0-1.393-.472-1.491-.945Z" transform="translate(-94.222 -47.434)" fill="#fff"/>
    <path id="Path_38" data-name="Path 38" d="M1063.928,697.358l-.032-.029a1.547,1.547,0,0,0-1.022-.4h-8.715a1.648,1.648,0,0,0-1.21.477L1047.362,703a1.565,1.565,0,0,0-.477,1.209v11.739a1.566,1.566,0,0,0,.477,1.21l5.587,5.587a1.648,1.648,0,0,0,1.21.477h8.715a1.547,1.547,0,0,0,1.022-.4l.032-.029,5.536-5.485a1.42,1.42,0,0,0,.376-1.006v-2.1a.935.935,0,0,0-.918-.969h-2.87a.918.918,0,0,0-.969.969v3.383a.805.805,0,0,1-.876.876l-10.968-.051a1.4,1.4,0,0,1-1.544-1.542V703.285a1.4,1.4,0,0,1,1.544-1.542l10.968-.051a.805.805,0,0,1,.876.876v3.383a.918.918,0,0,0,.969.969h2.87a.934.934,0,0,0,.918-.969v-2.1a1.418,1.418,0,0,0-.376-1.006Z" transform="translate(0 -11.502)" fill="#fff"/>
    <path id="Path_39" data-name="Path 39" d="M1063.928,765.8l-.032-.029a1.547,1.547,0,0,0-1.022-.4h-8.715a1.648,1.648,0,0,0-1.21.477l-5.587,5.588a1.565,1.565,0,0,0-.477,1.209v11.739a1.566,1.566,0,0,0,.477,1.21l5.587,5.587a1.648,1.648,0,0,0,1.21.477h8.715a1.544,1.544,0,0,0,1.022-.4l.032-.029,5.536-5.485a1.42,1.42,0,0,0,.376-1.006v-2.1a.935.935,0,0,0-.918-.969h-2.87a.918.918,0,0,0-.969.969v3.383a.805.805,0,0,1-.876.876l-10.968-.051a1.4,1.4,0,0,1-1.544-1.542V771.724a1.4,1.4,0,0,1,1.544-1.542l10.968-.051a.805.805,0,0,1,.876.876v3.383a.918.918,0,0,0,.969.969h2.87a.934.934,0,0,0,.918-.969v-2.1a1.418,1.418,0,0,0-.376-1.006Z" transform="translate(0 -47.434)" fill="#fff"/>
    <path id="Path_40" data-name="Path 40" d="M1189.381,691.5l-5.588-5.587a1.647,1.647,0,0,0-1.209-.478h-12.052v-9.437a.9.9,0,0,0-.918-.969h-2.871a.918.918,0,0,0-.969.969v28.45a1.567,1.567,0,0,0,.477,1.21l5.588,5.588a1.648,1.648,0,0,0,1.209.477h9.535a1.647,1.647,0,0,0,1.209-.477l5.588-5.588a1.566,1.566,0,0,0,.477-1.209V692.7a1.565,1.565,0,0,0-.477-1.209m-4.332,13.922a1.369,1.369,0,0,1-1.543,1.491h-11.378a1.4,1.4,0,0,1-1.544-1.542l-.051-13.687c0-1.023.447-1.44,1.543-1.44h11.431a1.4,1.4,0,0,1,1.543,1.542Z" transform="translate(-62.418)" fill="#fff"/>
    <path id="Path_41" data-name="Path 41" d="M1189.354,771.436l-1.108-1.108-4.48-4.581a1.886,1.886,0,0,0-.666-.376h-10.051a1.647,1.647,0,0,0-1.209.478l-5.588,5.587a1.567,1.567,0,0,0-.477,1.21V790.69a.918.918,0,0,0,.969.969h2.871a.9.9,0,0,0,.918-.969l.051-18.967a1.4,1.4,0,0,1,1.544-1.542h11.349a1.728,1.728,0,0,1,.912.226l.008,0a1.443,1.443,0,0,1,.624,1.312l.027,5.434a.937.937,0,0,0,.97.969h2.87a.97.97,0,0,0,.969-.969v-4.511a1.51,1.51,0,0,0-.5-1.21" transform="translate(-62.418 -47.433)" fill="#fff"/>
    <path id="Path_42" data-name="Path 42" d="M1310.292,703l-1.108-1.108-4.48-4.581a1.875,1.875,0,0,0-.666-.376h-10.051a1.647,1.647,0,0,0-1.209.478L1287.191,703a1.567,1.567,0,0,0-.478,1.21v18.044a.918.918,0,0,0,.969.969h2.871a.9.9,0,0,0,.918-.969l.051-18.967a1.4,1.4,0,0,1,1.545-1.542h11.349a1.728,1.728,0,0,1,.912.226l.009,0a1.442,1.442,0,0,1,.624,1.312l.027,5.434a.937.937,0,0,0,.969.969h2.871a.97.97,0,0,0,.969-.969v-4.511a1.509,1.509,0,0,0-.5-1.21" transform="translate(-125.912 -11.502)" fill="#fff"/>
    <path id="Path_43" data-name="Path 43" d="M1096.125,754.009h2.867a.911.911,0,0,1,.911.911v2.867a.911.911,0,0,1-.911.911h-2.867a.911.911,0,0,1-.911-.911V754.92a.911.911,0,0,1,.911-.911" transform="translate(-25.373 -41.468)" fill="#ebf615"/>
    <path id="Path_44" data-name="Path 44" d="M1156.387,754.009h2.868a.911.911,0,0,1,.911.911v2.867a.911.911,0,0,1-.911.911h-2.868a.911.911,0,0,1-.911-.911V754.92a.911.911,0,0,1,.911-.911" transform="translate(-57.011 -41.468)" fill="#7f92e2"/>
    <path id="Path_45" data-name="Path 45" d="M1217.441,754.009h2.867a.912.912,0,0,1,.911.911v2.867a.912.912,0,0,1-.911.911h-2.867a.911.911,0,0,1-.911-.911V754.92a.911.911,0,0,1,.911-.911" transform="translate(-89.065 -41.468)" fill="#fa87b6"/>
  </g>
</svg>
